<svg xmlns="http://www.w3.org/2000/svg" viewBox="0 0 640 512" fill="#2563EB">
  <path d="M524.5 69.8l-47.2 263.8c-1.7 9.6 6.1 18.3 15.8 18.3h32.2c9.4 0 17.1-7.5 17.2-16.9L543.4 83c.1-9.8-7.8-17.8-17.6-17.8-10.1-.1-18.6 7.7-19.3 17.8zm47 80.7c0 25.3-20.5 45.8-45.8 45.8-25.3 0-45.8-20.5-45.8-45.8 0-25.3 20.5-45.8 45.8-45.8 25.4 0 45.8 20.5 45.8 45.8zm-358.9 57.2H161c3.2 0 6-2.5 6.3-5.7l13.4-106c.3-2.5-.7-5-2.7-6.6-1.2-1-2.8-1.5-4.3-1.5h-44.9C123.5 87.1 98 65.3 68.8 65.3c-29.4 0-55.1 22.3-59.4 51.8h-15c-3.1 0-5.6 2.5-5.7 5.6l-5.3 78.9c0 2.9 2.2 5.5 5.1 5.9h15.6c4.2 29.2 29.7 51.7 59.8 51.7 30.2 0 56-22.5 59.9-51.9zm-203.3 7.7c-10.6 0-19.2-8.6-19.2-19.2 0-10.6 8.6-19.2 19.2-19.2 10.6 0 19.2 8.6 19.2 19.2 0 10.7-8.7 19.2-19.2 19.2zm154.7-75.1c0 2.8-2.3 5.1-5.1 5.1H81.4c-2.9 0-5.1-2.3-5.1-5.1 0-20.7 16.9-37.5 37.5-37.5 20.7 0 37.5 16.9 37.5 37.5zm28.3 75.1c-10.6 0-19.2-8.6-19.2-19.2 0-10.6 8.6-19.2 19.2-19.2 10.6 0 19.2 8.6 19.2 19.2 0 10.7-8.6 19.2-19.2 19.2zm94.5-56v-24.7h58.9c2.6 0 4.8-2.1 4.8-4.8 0-2.6-2.1-4.8-4.8-4.8h-58.9v-17.8h58.9c2.6 0 4.8-2.1 4.8-4.8 0-2.6-2.1-4.8-4.8-4.8h-63.7c-2.6 0-4.8 2.1-4.8 4.8v56.8c0 2.6 2.1 4.8 4.8 4.8h63.7c2.6 0 4.8-2.1 4.8-4.8 0-2.6-2.1-4.8-4.8-4.8h-58.9zm9.6 190c66.3 0 120.1-53.8 120.1-120.1s-53.8-120-120.1-120c-66.3 0-120.1 53.8-120.1 120 0 66.3 53.8 120.1 120.1 120.1z"/>
</svg>
